<svg xmlns="http://www.w3.org/2000/svg" viewBox="0 0 32 32" fill="none">
  <rect width="32" height="32" rx="6" fill="#0f172a"/>
  <path d="M7 8h4.5c2.5 0 4 1.5 4 3.5s-1.5 3.5-4 3.5H10v5H7V8zm3 5h1.2c1 0 1.5-.5 1.5-1.5S12.2 10 11.2 10H10v3z" fill="#22d3ee"/>
  <path d="M17 8h4.5c2.5 0 4 1.5 4 3.5 0 1.5-.8 2.6-2 3.1L26 20h-3.2l-2.2-5H20v5h-3V8zm3 5h1.2c1 0 1.5-.5 1.5-1.5S22.2 10 21.2 10H20v3z" fill="#22d3ee"/>
  <path d="M7 22h4.5c2.5 0 4 1.5 4 3.5S14 29 11.5 29H7v-7zm3 5h1.2c1 0 1.5-.5 1.5-1.5s-.5-1.5-1.5-1.5H10v3z" fill="#10b981"/>
</svg>